# xmcd CD database file
#
# Track frame offsets:
#	150
#	24660
#	42583
#	67929
#	92160
#	107653
#	129802
#	148962
#	174370
#	194595
#	216750
#	236409
#
# Disc length: 3172 seconds
#
# Revision: 0
# Processed by: cddbd v1.4PL0 Copyright (c) Steve Scherf et al.
# Submitted via: CDex 1.50
#
DISCID=a90c620c
DTITLE=Mississippi Fred McDowell - Live At The Gaslight - Set Two
DYEAR=1971
DGENRE=Blues
TTITLE0=Goin' To The River (Carry My Rocking Chair)
TTITLE1=Shake 'Em On Down
TTITLE2=61 highway
TTITLE3=John Henry
TTITLE4=My Babe
TTITLE5=I'm Crazy 'Bout You Baby
TTITLE6=Red Cross Store
TTITLE7=Levee Camp Blues
TTITLE8=Good Mornin' Little Schoolgirl
TTITLE9=Don't Mistreat Nobody (Cause You Got A Few Dimes)
TTITLE10=Get Right Church
TTITLE11=Good Night (Spoken Outro)
EXTD=YEAR: 1971
EXTT0=
EXTT1=
EXTT2=
EXTT3=
EXTT4=
EXTT5=
EXTT6=
EXTT7=
EXTT8=
EXTT9=
EXTT10=
EXTT11=
PLAYORDER=
